<?xml version="1.0" standalone="no"?>
<!DOCTYPE svg PUBLIC "-//W3C//DTD SVG 20010904//EN"
 "http://www.w3.org/TR/2001/REC-SVG-20010904/DTD/svg10.dtd">
<svg viewBox="134.2184 164.6714 64 64" width="64.000000pt" height="64.000000pt" xmlns="http://www.w3.org/2000/svg">
  <g transform="matrix(0.10000000149011613, 0, 0, -0.10000000149011613, 134.06475830078125, 224.671371459961)" fill="#d40c48" stroke="none">
    <path d="M 95 581 C -18 511 -30 378 67 254 C 109 201 299 40 320 40 C 341 40 531 201 573 254 C 637 336 654 416 625 488 C 594 561 539 600 465 600 C 413 600 388 590 348 552 L 320 526 L 293 552 C 277 566 255 583 243 589 C 209 606 129 602 95 581 Z"/>
    <path d="M 209 560 C 228 555 261 534 282 514 L 319 477 L 363 517 C 418 567 466 579 517 553 C 566 529 591 492 597 436 C 606 357 582 313 467 204 C 411 151 355 101 343 93 C 314 73 306 78 173 204 C 58 313 34 357 43 436 C 49 491 74 529 121 552 C 161 573 164 573 209 560 Z"/>
  </g>
</svg>